<svg xmlns="http://www.w3.org/2000/svg" viewBox="0 0 100 100" fill="#38a248" xmlns:v="https://vecta.io/nano"><path d="M88.3 61L77.5 75.1c-2.2 2.8-5.5 4.5-9.1 4.5h-20c-1.6 0-2.9-1.3-2.9-2.9s1.3-2.9 2.9-2.9h17.4c3.7 0 6.9-3.1 6.8-6.8a6.66 6.66 0 0 0-6.7-6.5h-20c-5.7-5.5-14.6-6.1-21-1.5l-2.2 1.5v32.4h49.7c5.8 0 11.3-3 14.4-7.9l11.1-17.3c.6-.9.9-2 .9-3.2.1-5.6-7-8-10.5-3.5m-74.2-6.2H4.2c-1.6 0-2.9 1.3-2.9 2.9v38.1c0 1.6 1.3 2.9 2.9 2.9h9.9c1.6 0 2.9-1.3 2.9-2.9V57.7c0-1.6-1.3-2.9-2.9-2.9m43.8-6.1C71 48.7 81.7 38 81.7 24.9S71 1.1 57.9 1.1 34.1 11.8 34.1 24.9c0 13.2 10.7 23.8 23.8 23.8m-7.2-16c.6-.9 1.8-1.1 2.6-.6 1 .7 1.7 1 2.5 1.1v-8c-1.2-.6-2.1-1.1-2.9-1.7-1.6-1.2-2.3-3.4-1.9-5.6.5-2.4 2.1-4.3 4.4-5 .1 0 .2-.1.4-.1v-1.2c0-1.1.9-1.9 1.9-1.9 1.1 0 1.9.9 1.9 1.9v1c1.8.3 3.2 1.2 3.8 2 .7.8.6 2-.2 2.7s-2 .6-2.7-.2c0 0-.3-.3-.9-.5v6.2c.3.1.7.2 1 .4 3.3 1.2 5.2 4.3 4.6 7.7-.4 2.7-2.5 5.4-5.6 6.2v1.4c0 1.1-.9 1.9-1.9 1.9-1.1 0-1.9-.9-1.9-1.9v-1.2c-1.5-.1-2.8-.5-4.6-1.7-.8-.8-1-2-.5-2.9"/></svg>