<svg xmlns="http://www.w3.org/2000/svg" viewBox="0 0 100 100" xmlns:v="https://vecta.io/nano"><path d="M87.7 1.3L66.4 7.4c-1.2.4-2.1 1.5-2.1 2.7v1.7h-11v-8C53.3 2.3 52 1 50.4 1H35.2c-1.6 0-2.9 1.3-2.9 2.9V12C19.5 13.5 9.5 24.4 9.5 37.6c0 1.6 1.3 2.9 2.9 2.9s2.9-1.3 2.9-2.9c0-10.1 7.5-18.4 17.1-19.8v4.5C25.8 26 21.7 33 21.7 40.6v55c0 1.6 1.3 2.9 2.9 2.9h36.6c1.6 0 2.9-1.3 2.9-2.9V78.5H39.8c-1.6 0-2.9-1.3-2.9-2.9V48.3c0-1.6 1.3-2.9 2.9-2.9H64v-4.8c0-7.9-4.3-14.7-10.7-18.4v-4.7h11v1.7c0 1.3.8 2.4 2.1 2.7L87.7 28c1.8.5 3.6-.8 3.6-2.7V4.1c.1-1.9-1.7-3.3-3.6-2.8" fill="#38a248"/></svg>