<svg xmlns="http://www.w3.org/2000/svg" xmlns:xlink="http://www.w3.org/1999/xlink" viewBox="0 0 100 100" xmlns:v="https://vecta.io/nano"><g fill="#38a248"><path d="M74 92.1a3.12 3.12 0 0 0-3.1 3.1 3.12 3.12 0 0 0 3.1 3.1h13.6a3.12 3.12 0 0 0 3.1-3.1 3.12 3.12 0 0 0-3.1-3.1h-4.2V60.7h8.4v3.1a3.12 3.12 0 0 0 3.1 3.1 3.12 3.12 0 0 0 3.1-3.1v-25a3.12 3.12 0 0 0-3.1-3.1 3.12 3.12 0 0 0-3.1 3.1v3.1h-8.4v-6.3c0-3.5-2.8-6.3-6.3-6.3s-6.3 2.8-6.3 6.3v43.9c0 3.5 2.8 6.3 6.3 6.3v6.3H74zm9.4-43.9h8.4v6.3h-8.4v-6.3zm-69 43.9h-3.1a3.12 3.12 0 0 0-3.1 3.1 3.12 3.12 0 0 0 3.1 3.1h13.6a3.12 3.12 0 0 0 3.1-3.1 3.12 3.12 0 0 0-3.1-3.1h-4.2v-6.3c3.5 0 6.3-2.8 6.3-6.3V35.6c0-3.5-2.8-6.3-6.3-6.3s-6.3 2.8-6.3 6.3v6.3H5A3.12 3.12 0 0 0 1.9 45v12.5A3.12 3.12 0 0 0 5 60.6h9.4v31.5zM8.1 48.2h6.3v6.3H8.1v-6.3zm25.1-12.6v43.9c0 3.5 2.8 6.3 6.3 6.3s6.3-2.8 6.3-6.3V35.6c0-3.5-2.8-6.3-6.3-6.3-3.5.1-6.3 2.9-6.3 6.3m25.1-6.2c-3.5 0-6.3 2.8-6.3 6.3v43.9c0 3.5 2.8 6.3 6.3 6.3s6.3-2.8 6.3-6.3v-44c0-3.4-2.8-6.2-6.3-6.2"/><use xlink:href="#A"/><use xlink:href="#A" x="16.7"/><path d="M72.9 8.5c0-3.5-3.8-5.5-5-6-1.6-.7-3.4 0-4.1 1.6s0 3.4 1.6 4.1c.2.1.3.2.5.3-2.1 1.2-5.5 2.7-5.5 6.3 0 3.5 3.8 5.5 5 6 1.6.7 3.4 0 4.1-1.6s0-3.4-1.6-4.1c-.2-.1-.3-.2-.5-.3 2.1-1.3 5.5-2.7 5.5-6.3"/></g><defs><path id="A" d="M34.5 2.5c-1.6-.7-3.4 0-4.1 1.6s0 3.4 1.6 4.1c.2.1.3.2.5.3-2.1 1.2-5.5 2.7-5.5 6.3 0 3.5 3.8 5.5 5 6 1.6.7 3.4 0 4.1-1.6s0-3.4-1.6-4.1c-.2-.1-.3-.2-.5-.3 2.1-1.2 5.5-2.7 5.5-6.3 0-3.5-3.8-5.5-5-6"/></defs></svg>