<svg xmlns="http://www.w3.org/2000/svg" viewBox="0 0 100 100" fill="#38a248" xmlns:v="https://vecta.io/nano"><path d="M33.4 2H16.7c-1.5 0-2.8 1.2-2.8 2.8 0 1.5 1.2 2.8 2.8 2.8h16.8c1.5 0 2.8-1.2 2.8-2.8C36.2 3.3 35 2 33.4 2M2.5 16c0 1.5 1.2 2.8 2.8 2.8h16.9c1.5 0 2.8-1.2 2.8-2.8 0-1.5-1.2-2.8-2.8-2.8H5.3c-1.5 0-2.8 1.2-2.8 2.8M95 7.6h-2.8V4.8C92.2 3.3 91 2 89.4 2c-1.5 0-2.8 1.2-2.8 2.8v2.8h-2.8c-1.5 0-2.8 1.2-2.8 2.8 0 1.5 1.2 2.8 2.8 2.8h2.8V16c0 1.5 1.2 2.8 2.8 2.8 1.5 0 2.8-1.2 2.8-2.8v-2.8H95c1.5 0 2.8-1.2 2.8-2.8A2.73 2.73 0 0 0 95 7.6M75.3 91.7h2.8c1.5 0 2.8-1.2 2.8-2.8 0-1.5-1.2-2.8-2.8-2.8h-2.8v-2.8c0-1.5-1.2-2.8-2.8-2.8a2.73 2.73 0 0 0-2.8 2.8v2.8h-2.8c-1.5 0-2.8 1.2-2.8 2.8 0 1.5 1.2 2.8 2.8 2.8h2.8v2.8c0 1.5 1.2 2.8 2.8 2.8a2.73 2.73 0 0 0 2.8-2.8v-2.8z"/><path d="M78.6 60.5c1.6-1.8 1.6-4.5 0-6.1a4.23 4.23 0 0 0-5.9 0L61.9 65.3c-1.1 1.1-2.9 1.1-3.9 0-1.1-1.1-1.1-2.9 0-3.9l14.8-14.8a4.23 4.23 0 0 0 0-5.9 4.23 4.23 0 0 0-5.9 0L52 55.4c-1.1 1.1-2.9 1.1-3.9 0-1.1-1.1-1.1-2.9 0-3.9l18.8-18.8a4.23 4.23 0 0 0 0-5.9 4.23 4.23 0 0 0-5.9 0L42.1 45.5c-1.1 1.1-2.9 1.1-3.9 0-1.1-1.1-1.1-2.9 0-3.9L53 26.8a4.23 4.23 0 0 0 0-5.9 4.23 4.23 0 0 0-5.9 0L18.9 49l-1-17.4c-.1-1.4-.7-2.7-1.6-3.7a5.55 5.55 0 0 0-7.9 0c-1 1-1.6 2.4-1.6 3.8-2.5 31.7-9.7 44 3.6 57.4 10.8 10.9 28.5 10.9 39.4.2l28.8-28.8zM92 63.1c7.6-7.6 7.6-20 0-27.8L68.3 11.6c-7.4-7.2-20.3-7.2-27.6.2l-8.1 8.1c-3.1 3.1-4.4 7.4-3.9 11.5L43.1 17c1.8-2 4.3-3 6.9-3s5.1 1 6.9 2.9c1.2 1.2 2 2.6 2.5 4.1 1.4-.7 2.9-1.1 4.4-1.1 2.6 0 5.1 1 6.9 2.9 1.8 1.8 2.9 4.3 2.9 6.9 0 1.6-.4 3.1-1.1 4.4 1.5.5 3 1.3 4.1 2.5 3.1 3.1 3.7 7.7 1.8 11.4 1.5.5 3 1.3 4.1 2.5a9.78 9.78 0 0 1 0 13.8L71.8 75.1c4.3.7 8.8-.6 12.1-3.9l8.1-8.1z"/></svg>