<svg xmlns="http://www.w3.org/2000/svg" viewBox="0 0 100 100" xmlns:v="https://vecta.io/nano"><path d="M90.2 16.8h-9V6.1c0-1.5-1.2-2.8-2.8-2.8H19.5c-1.5 0-2.8 1.2-2.8 2.8v10.7h-6.3v-3.1c0-1.5-1.2-2.8-2.8-2.8S5 12.1 5 13.6v13.3c0 1.5 1.2 2.8 2.8 2.8a2.73 2.73 0 0 0 2.8-2.8v-4.6h6.3v10.5c0 1.5 1.2 2.8 2.8 2.8h58.9c1.5 0 2.8-1.2 2.8-2.8V22.3h6.3v17.2l-39.1 9.8a2.79 2.79 0 0 0-2.1 2.7v9h-3.1c-1.5 0-2.7 1.1-2.8 2.6l-1.5 23.7c0 2.7 1 5.3 2.9 7.2 4 4.1 10.4 4.1 14.4 0 1.9-2 2.9-4.5 2.9-7.2 0-.1.1 1.5-1.5-23.7-.1-1.5-1.3-2.6-2.8-2.6h-3.1v-6.9L91 44.3a2.79 2.79 0 0 0 2.1-2.7V19.5c-.1-1.5-1.3-2.7-2.9-2.7" fill="#38a248"/></svg>