<svg xmlns="http://www.w3.org/2000/svg" viewBox="0 0 100 100" fill="#38a248" xmlns:v="https://vecta.io/nano"><path d="M36.6 78.2c-.1 0-.1-.1.1-.2l-.2-.1-.1-.1c-1.4-.7-1.9-2.4-1.2-3.8.1-.3.3-.5.5-.7l7.1-6.9L80.2 29a9.13 9.13 0 0 1-1.3.8l-15.3 9.6-10.1 6.5-5.1 3.3-28.6 18.9 9.1 16.5c1.1 2 3.8 2.5 5.5 1l6.6-5.7-3.1-1.6-1.3-.1zM94 12.5c-.8.2-1.6.6-2.6 1.1L2.7 56.4C.3 57.5.6 61 3.2 61.7l11.6 3 5.5-3.3 15.6-9.3 10.2-6.2 5.1-3.2 10.2-6.3 20.4-12.8L92 17.1c.9-.6 2.1-.3 2.7.6.5.8.4 1.7-.2 2.3h0L73.8 41.3 46.6 70.1l-4 4.3 5.5 2.5 29.1 8.8c1.5.5 3.2-.4 3.6-2L99 17.2c.7-2.9-2.1-5.6-5-4.7"/></svg>