<svg xmlns="http://www.w3.org/2000/svg" viewBox="0 0 100 100" fill="#38a248" xmlns:v="https://vecta.io/nano"><path d="M5.8 80.8V73c-2.1-.3-4.5-.3-4.4-3.2.1-2.6 2.4-2.7 4.5-2.8V57c-.8-12.3 8.6-21.3 20.5-20.3 2.2.2 4.5 0 6.9 0v20.8h-6.1V67c2 .2 4.2.2 4.3 3 .1 1.8-1.1 2.6-4.3 3v7.7H73V73c-2-.2-4.2-.2-4.3-3 0-1.8 1.2-2.6 4.4-3v-9.3h-6.2V36.4c4.7.3 9.4 0 13.9.9 7.5 1.5 12.9 8.3 13.4 16 .2 3.7.1 7.5.1 11.3v2.3c3.5.5 4.6 1.4 4.6 3.2s-1.2 2.6-4.4 3v7.7c.7.1 1.3.1 1.8.2 1.6.2 2.5 1.1 2.6 2.7.1 1.7-1 2.6-2.6 2.9-.6.1-1.2 0-1.7 0H6.1c-.6 0-1.2.1-1.7 0-1.6-.3-2.7-1.2-2.6-2.9.1-1.6 1-2.5 2.6-2.7.1-.2.7-.2 1.4-.2m54.9-18.6H41c-1.3 0-2-.3-2-1.8l.1-26.7c0-.6.7-1.7 1-1.7h20.6v30.2zM59 19.4v6.7H41v-6.7h-4.5c-1.8 0-2.9-.9-3-2.7-.1-1.7 1.1-2.9 3-2.9h26.9c2 0 3.2 1.2 3.2 2.8 0 1.7-1.2 2.8-3.1 2.9-1.4 0-2.8-.1-4.5-.1"/></svg>