<svg xmlns="http://www.w3.org/2000/svg" viewBox="0 0 100 100" fill="#38a248" xmlns:v="https://vecta.io/nano"><path d="M97.4 45.7l-5.5-11.9c-.5-1-1.5-1.7-2.6-1.7s-2.1.6-2.6 1.7l-5.5 11.9c-1.6 3.5-1 7.8 1.6 10.6 1.7 1.8 4 2.9 6.4 2.9s4.7-1 6.4-2.9c2.7-2.8 3.4-7 1.8-10.6M69.8 84.3H8.1A7.13 7.13 0 0 0 1 91.4a7.13 7.13 0 0 0 7.1 7.1h61.7a7.13 7.13 0 0 0 7.1-7.1 7.13 7.13 0 0 0-7.1-7.1m-8-61.9H71c1.6 0 2.8-1.3 2.8-2.8v-.7h9.8v.6c0 1.6 1.3 2.8 2.8 2.8 1.6 0 2.8-1.3 2.8-2.8V4.1c0-1.6-1.3-2.8-2.8-2.8-1.6 0-2.8 1.3-2.8 2.8v.6h-9.8v-.6c0-1.6-1.3-2.8-2.8-2.8h-9.2c-1.6 0-2.8 1.3-2.8 2.8v15.5c0 1.5 1.3 2.8 2.8 2.8m8 42H18.1c-1.6 0-2.8-1.3-2.8-2.8 0-1.6 1.3-2.8 2.8-2.8h23.5a17 17 0 1 0 0-34H18.1c-1.6 0-2.8-1.3-2.8-2.8 0-1.6 1.3-2.8 2.8-2.8h35.2V4.7H18.1C8.6 4.7 1 12.3 1 21.7s7.6 17 17.1 17h23.5c1.6 0 2.8 1.3 2.8 2.8 0 1.6-1.3 2.8-2.8 2.8H18.1C8.6 44.5 1 52.1 1 61.5a17.03 17.03 0 0 0 17.1 17.1h51.7a7.13 7.13 0 0 0 7.1-7.1 7.13 7.13 0 0 0-7.1-7.1"/></svg>