<?xml version="1.0" encoding="utf-8"?>
<!-- Generator: Adobe Illustrator 19.0.0, SVG Export Plug-In . SVG Version: 6.00 Build 0)  -->
<svg version="1.1" id="Layer_1" xmlns="http://www.w3.org/2000/svg" xmlns:xlink="http://www.w3.org/1999/xlink" x="0px" y="0px"
	 viewBox="0 0 100 100" style="enable-background:new 0 0 100 100;" xml:space="preserve">
<style type="text/css">
	.st0{fill:#38A248;}
</style>
<path id="XMLID_55_" class="st0" d="M46.5,98.5c0.5-1.1,0.8-1.9,1.2-2.6c3.7-7.6,7.5-15.2,11.2-22.8c1.4-2.8,1-4-1.8-5.3
	c-4.6-2.2-9.3-4.4-14.2-6.7c1.7-2.3,3.3-4.4,4.9-6.5c2.6-3.4,5.1-6.8,7.7-10.3c1.6-2.2,1.5-3.3-0.5-5c-2.5-2.2-4.9-4.3-7.4-6.4
	c-1.6-1.4-3.3-1.3-4.4,0c-1.1,1.4-0.9,2.8,0.8,4.3c1.9,1.7,3.8,3.3,5.9,5.1c-2.3,3-4.5,6-6.7,9c-2.1,2.8-4.2,5.5-6.3,8.3
	c-1.8,2.5-1.4,4.1,1.4,5.4c4.8,2.3,9.7,4.6,14.6,6.9c-0.2,0.6-0.4,1.2-0.6,1.7c-3.8,7.7-7.6,15.4-11.4,23.2
	c-0.6,1.2-1.3,1.6-2.6,1.6c-9.3-0.1-18.6,0-27.8,0c-2.6,0-3.7-1-3.7-3.7c0-16.2,0-32.3,0-48.5c0-0.6,0.3-1.5,0.7-1.8
	c9.9-7.1,19.8-14.1,29.8-21.1c4.1-2.9,8.3-5.9,12.5-8.9c2.9,2.1,5.9,4.2,8.8,6.3C69.7,28.6,80.9,36.5,92,44.5c0.4,0.3,0.7,1,0.7,1.6
	c0,16.4,0,32.8,0,49.2c0,1.9-0.9,3.3-3,3.3C75.5,98.5,61.2,98.5,46.5,98.5"/>
<path id="XMLID_54_" class="st0" d="M3.7,39.8c-0.9-0.7-2-1.3-2.3-2.1c-0.3-0.8,0.1-2,0.4-3C2,34.3,2.8,34,3.3,33.6
	c14.5-10.4,29-20.7,43.5-31.1c2.8-2,3.1-2,5.9,0c14.4,10.3,28.8,20.6,43.2,30.8c0.4,0.3,0.8,0.6,1.2,0.9c1.4,1.1,1.9,2.4,0.8,4
	c-0.9,1.4-2.6,1.7-4.2,0.6c-3-2.1-6-4.3-9-6.4c-11.1-8-22.3-15.9-33.4-23.9c-1.2-0.9-2-0.8-3.2,0C34.4,18.4,20.6,28.2,6.8,38.1
	C5.9,38.7,4.9,39.1,3.7,39.8"/>
</svg>
