<?xml version="1.0" encoding="utf-8"?>
<!-- Generator: Adobe Illustrator 19.0.0, SVG Export Plug-In . SVG Version: 6.00 Build 0)  -->
<svg version="1.1" id="Layer_1" xmlns="http://www.w3.org/2000/svg" xmlns:xlink="http://www.w3.org/1999/xlink" x="0px" y="0px"
	 viewBox="0 0 100 100" style="enable-background:new 0 0 100 100;" xml:space="preserve">
<style type="text/css">
	.st0{fill:#38A248;}
</style>
<path id="XMLID_54_" class="st0" d="M75.1,2.5C74.5,1.6,73.6,1,72.6,1H38.2c-1.3,0-2.5,0.9-2.8,2.2L23.9,49.2
	c-0.2,0.9,0,1.8,0.5,2.5c0.5,0.7,1.4,1.1,2.3,1.1h13.1L24,95c-0.5,1.3,0.1,2.9,1.3,3.5c1.3,0.7,2.8,0.3,3.7-0.8l45.9-63.3
	c0.6-0.9,0.7-2,0.2-3c-0.5-1-1.5-1.6-2.6-1.6H60.4L75,5.3C75.5,4.5,75.6,3.4,75.1,2.5"/>
</svg>
