<svg xmlns="http://www.w3.org/2000/svg" viewBox="0 0 100 100" fill="#38a248" xmlns:v="https://vecta.io/nano"><path d="M92.6 40.2c0 5.4-4.4 9.7-9.7 9.7s-9.7-4.4-9.7-9.7c0-5.4 4.4-9.7 9.7-9.7s9.7 4.4 9.7 9.7m-64.7 0c0 5.4-4.4 9.7-9.7 9.7-5.4 0-9.7-4.4-9.7-9.7 0-5.4 4.4-9.7 9.7-9.7s9.7 4.4 9.7 9.7"/><path d="M64.3 35.1c0 7.6-6.2 13.8-13.8 13.8s-13.8-6.2-13.8-13.8 6.2-13.8 13.8-13.8c7.6.1 13.8 6.2 13.8 13.8M30.5 60c-1.7-1.3-3.7-2-6-2H11.9C6.4 58 2 62.4 2 67.8v3.7a1.11 1.11 0 0 0 1.1 1.1h20.3c.6-5.1 3.2-9.6 7.1-12.6m28.9 2.3H41.7c-6.8 0-12.3 5.5-12.3 12.3v4.7c0 .8.6 1.4 1.4 1.4h39.4c.8 0 1.4-.6 1.4-1.4v-4.7c.1-6.9-5.4-12.3-12.2-12.3m29.8-4.5H76.5c-2.2 0-4.4.8-6 2.1 3.9 3 6.5 7.4 7.1 12.5H98c.6 0 1-.5 1-1v-3.7c0-5.5-4.4-9.9-9.8-9.9"/></svg>